<?xml version="1.0" encoding="utf-8" standalone="no"?>
<!DOCTYPE svg PUBLIC "-//W3C//DTD SVG 1.1//EN"
  "http://www.w3.org/Graphics/SVG/1.1/DTD/svg11.dtd">
<svg height="576pt" version="1.1" viewBox="0 0 864 576" width="864pt" xmlns="http://www.w3.org/2000/svg" xmlns:xlink="http://www.w3.org/1999/xlink">
 <metadata>
  <rdf:RDF xmlns:cc="http://creativecommons.org/ns#" xmlns:dc="http://purl.org/dc/elements/1.1/" xmlns:rdf="http://www.w3.org/1999/02/22-rdf-syntax-ns#">
   <cc:Work>
    <dc:type rdf:resource="http://purl.org/dc/dcmitype/StillImage"/>
    <dc:date>2021-11-29T20:50:32.146076</dc:date>
    <dc:format>image/svg+xml</dc:format>
    <dc:creator>
     <cc:Agent>
      <dc:title>Matplotlib v3.4.2, https://matplotlib.org/</dc:title>
     </cc:Agent>
    </dc:creator>
   </cc:Work>
  </rdf:RDF>
 </metadata>
 <defs>
  <style type="text/css">*{stroke-linecap:butt;stroke-linejoin:round;}</style>
 </defs>
 <g id="figure_1">
  <g id="patch_1">
   <path d="M 0 576 
L 864 576 
L 864 0 
L 0 0 
z
" style="fill:#ffffff;"/>
  </g>
  <g id="axes_1">
   <g id="patch_2">
    <path d="M 108 512.64 
L 777.6 512.64 
L 777.6 69.12 
L 108 69.12 
z
" style="fill:#ffffff;"/>
   </g>
   <g id="matplotlib.axis_1">
    <g id="xtick_1">
     <g id="line2d_1">
      <defs>
       <path d="M 0 0 
L 0 3.5 
" id="m327ee34c5e" style="stroke:#000000;stroke-width:0.8;"/>
      </defs>
      <g>
       <use style="stroke:#000000;stroke-width:0.8;" x="108" xlink:href="#m327ee34c5e" y="512.64"/>
      </g>
     </g>
     <g id="text_1">
      <!-- −1.0 -->
      <g transform="translate(95.858594 527.238438)scale(0.1 -0.1)">
       <defs>
        <path d="M 678 2272 
L 4684 2272 
L 4684 1741 
L 678 1741 
L 678 2272 
z
" id="DejaVuSans-2212" transform="scale(0.015625)"/>
        <path d="M 794 531 
L 1825 531 
L 1825 4091 
L 703 3866 
L 703 4441 
L 1819 4666 
L 2450 4666 
L 2450 531 
L 3481 531 
L 3481 0 
L 794 0 
L 794 531 
z
" id="DejaVuSans-31" transform="scale(0.015625)"/>
        <path d="M 684 794 
L 1344 794 
L 1344 0 
L 684 0 
L 684 794 
z
" id="DejaVuSans-2e" transform="scale(0.015625)"/>
        <path d="M 2034 4250 
Q 1547 4250 1301 3770 
Q 1056 3291 1056 2328 
Q 1056 1369 1301 889 
Q 1547 409 2034 409 
Q 2525 409 2770 889 
Q 3016 1369 3016 2328 
Q 3016 3291 2770 3770 
Q 2525 4250 2034 4250 
z
M 2034 4750 
Q 2819 4750 3233 4129 
Q 3647 3509 3647 2328 
Q 3647 1150 3233 529 
Q 2819 -91 2034 -91 
Q 1250 -91 836 529 
Q 422 1150 422 2328 
Q 422 3509 836 4129 
Q 1250 4750 2034 4750 
z
" id="DejaVuSans-30" transform="scale(0.015625)"/>
       </defs>
       <use xlink:href="#DejaVuSans-2212"/>
       <use x="83.789062" xlink:href="#DejaVuSans-31"/>
       <use x="147.412109" xlink:href="#DejaVuSans-2e"/>
       <use x="179.199219" xlink:href="#DejaVuSans-30"/>
      </g>
     </g>
    </g>
    <g id="xtick_2">
     <g id="line2d_2">
      <g>
       <use style="stroke:#000000;stroke-width:0.8;" x="140.207792" xlink:href="#m327ee34c5e" y="512.64"/>
      </g>
     </g>
     <g id="text_2">
      <!-- −0.9 -->
      <g transform="translate(128.066386 527.238438)scale(0.1 -0.1)">
       <defs>
        <path d="M 703 97 
L 703 672 
Q 941 559 1184 500 
Q 1428 441 1663 441 
Q 2288 441 2617 861 
Q 2947 1281 2994 2138 
Q 2813 1869 2534 1725 
Q 2256 1581 1919 1581 
Q 1219 1581 811 2004 
Q 403 2428 403 3163 
Q 403 3881 828 4315 
Q 1253 4750 1959 4750 
Q 2769 4750 3195 4129 
Q 3622 3509 3622 2328 
Q 3622 1225 3098 567 
Q 2575 -91 1691 -91 
Q 1453 -91 1209 -44 
Q 966 3 703 97 
z
M 1959 2075 
Q 2384 2075 2632 2365 
Q 2881 2656 2881 3163 
Q 2881 3666 2632 3958 
Q 2384 4250 1959 4250 
Q 1534 4250 1286 3958 
Q 1038 3666 1038 3163 
Q 1038 2656 1286 2365 
Q 1534 2075 1959 2075 
z
" id="DejaVuSans-39" transform="scale(0.015625)"/>
       </defs>
       <use xlink:href="#DejaVuSans-2212"/>
       <use x="83.789062" xlink:href="#DejaVuSans-30"/>
       <use x="147.412109" xlink:href="#DejaVuSans-2e"/>
       <use x="179.199219" xlink:href="#DejaVuSans-39"/>
      </g>
     </g>
    </g>
    <g id="xtick_3">
     <g id="line2d_3">
      <g>
       <use style="stroke:#000000;stroke-width:0.8;" x="172.415584" xlink:href="#m327ee34c5e" y="512.64"/>
      </g>
     </g>
     <g id="text_3">
      <!-- −0.8 -->
      <g transform="translate(160.274178 527.238438)scale(0.1 -0.1)">
       <defs>
        <path d="M 2034 2216 
Q 1584 2216 1326 1975 
Q 1069 1734 1069 1313 
Q 1069 891 1326 650 
Q 1584 409 2034 409 
Q 2484 409 2743 651 
Q 3003 894 3003 1313 
Q 3003 1734 2745 1975 
Q 2488 2216 2034 2216 
z
M 1403 2484 
Q 997 2584 770 2862 
Q 544 3141 544 3541 
Q 544 4100 942 4425 
Q 1341 4750 2034 4750 
Q 2731 4750 3128 4425 
Q 3525 4100 3525 3541 
Q 3525 3141 3298 2862 
Q 3072 2584 2669 2484 
Q 3125 2378 3379 2068 
Q 3634 1759 3634 1313 
Q 3634 634 3220 271 
Q 2806 -91 2034 -91 
Q 1263 -91 848 271 
Q 434 634 434 1313 
Q 434 1759 690 2068 
Q 947 2378 1403 2484 
z
M 1172 3481 
Q 1172 3119 1398 2916 
Q 1625 2713 2034 2713 
Q 2441 2713 2670 2916 
Q 2900 3119 2900 3481 
Q 2900 3844 2670 4047 
Q 2441 4250 2034 4250 
Q 1625 4250 1398 4047 
Q 1172 3844 1172 3481 
z
" id="DejaVuSans-38" transform="scale(0.015625)"/>
       </defs>
       <use xlink:href="#DejaVuSans-2212"/>
       <use x="83.789062" xlink:href="#DejaVuSans-30"/>
       <use x="147.412109" xlink:href="#DejaVuSans-2e"/>
       <use x="179.199219" xlink:href="#DejaVuSans-38"/>
      </g>
     </g>
    </g>
    <g id="xtick_4">
     <g id="line2d_4">
      <g>
       <use style="stroke:#000000;stroke-width:0.8;" x="204.623377" xlink:href="#m327ee34c5e" y="512.64"/>
      </g>
     </g>
     <g id="text_4">
      <!-- −0.7 -->
      <g transform="translate(192.48197 527.238438)scale(0.1 -0.1)">
       <defs>
        <path d="M 525 4666 
L 3525 4666 
L 3525 4397 
L 1831 0 
L 1172 0 
L 2766 4134 
L 525 4134 
L 525 4666 
z
" id="DejaVuSans-37" transform="scale(0.015625)"/>
       </defs>
       <use xlink:href="#DejaVuSans-2212"/>
       <use x="83.789062" xlink:href="#DejaVuSans-30"/>
       <use x="147.412109" xlink:href="#DejaVuSans-2e"/>
       <use x="179.199219" xlink:href="#DejaVuSans-37"/>
      </g>
     </g>
    </g>
    <g id="xtick_5">
     <g id="line2d_5">
      <g>
       <use style="stroke:#000000;stroke-width:0.8;" x="236.831169" xlink:href="#m327ee34c5e" y="512.64"/>
      </g>
     </g>
     <g id="text_5">
      <!-- −0.6 -->
      <g transform="translate(224.689763 527.238438)scale(0.1 -0.1)">
       <defs>
        <path d="M 2113 2584 
Q 1688 2584 1439 2293 
Q 1191 2003 1191 1497 
Q 1191 994 1439 701 
Q 1688 409 2113 409 
Q 2538 409 2786 701 
Q 3034 994 3034 1497 
Q 3034 2003 2786 2293 
Q 2538 2584 2113 2584 
z
M 3366 4563 
L 3366 3988 
Q 3128 4100 2886 4159 
Q 2644 4219 2406 4219 
Q 1781 4219 1451 3797 
Q 1122 3375 1075 2522 
Q 1259 2794 1537 2939 
Q 1816 3084 2150 3084 
Q 2853 3084 3261 2657 
Q 3669 2231 3669 1497 
Q 3669 778 3244 343 
Q 2819 -91 2113 -91 
Q 1303 -91 875 529 
Q 447 1150 447 2328 
Q 447 3434 972 4092 
Q 1497 4750 2381 4750 
Q 2619 4750 2861 4703 
Q 3103 4656 3366 4563 
z
" id="DejaVuSans-36" transform="scale(0.015625)"/>
       </defs>
       <use xlink:href="#DejaVuSans-2212"/>
       <use x="83.789062" xlink:href="#DejaVuSans-30"/>
       <use x="147.412109" xlink:href="#DejaVuSans-2e"/>
       <use x="179.199219" xlink:href="#DejaVuSans-36"/>
      </g>
     </g>
    </g>
    <g id="xtick_6">
     <g id="line2d_6">
      <g>
       <use style="stroke:#000000;stroke-width:0.8;" x="269.038961" xlink:href="#m327ee34c5e" y="512.64"/>
      </g>
     </g>
     <g id="text_6">
      <!-- −0.5 -->
      <g transform="translate(256.897555 527.238438)scale(0.1 -0.1)">
       <defs>
        <path d="M 691 4666 
L 3169 4666 
L 3169 4134 
L 1269 4134 
L 1269 2991 
Q 1406 3038 1543 3061 
Q 1681 3084 1819 3084 
Q 2600 3084 3056 2656 
Q 3513 2228 3513 1497 
Q 3513 744 3044 326 
Q 2575 -91 1722 -91 
Q 1428 -91 1123 -41 
Q 819 9 494 109 
L 494 744 
Q 775 591 1075 516 
Q 1375 441 1709 441 
Q 2250 441 2565 725 
Q 2881 1009 2881 1497 
Q 2881 1984 2565 2268 
Q 2250 2553 1709 2553 
Q 1456 2553 1204 2497 
Q 953 2441 691 2322 
L 691 4666 
z
" id="DejaVuSans-35" transform="scale(0.015625)"/>
       </defs>
       <use xlink:href="#DejaVuSans-2212"/>
       <use x="83.789062" xlink:href="#DejaVuSans-30"/>
       <use x="147.412109" xlink:href="#DejaVuSans-2e"/>
       <use x="179.199219" xlink:href="#DejaVuSans-35"/>
      </g>
     </g>
    </g>
    <g id="xtick_7">
     <g id="line2d_7">
      <g>
       <use style="stroke:#000000;stroke-width:0.8;" x="301.246753" xlink:href="#m327ee34c5e" y="512.64"/>
      </g>
     </g>
     <g id="text_7">
      <!-- −0.4 -->
      <g transform="translate(289.105347 527.238438)scale(0.1 -0.1)">
       <defs>
        <path d="M 2419 4116 
L 825 1625 
L 2419 1625 
L 2419 4116 
z
M 2253 4666 
L 3047 4666 
L 3047 1625 
L 3713 1625 
L 3713 1100 
L 3047 1100 
L 3047 0 
L 2419 0 
L 2419 1100 
L 313 1100 
L 313 1709 
L 2253 4666 
z
" id="DejaVuSans-34" transform="scale(0.015625)"/>
       </defs>
       <use xlink:href="#DejaVuSans-2212"/>
       <use x="83.789062" xlink:href="#DejaVuSans-30"/>
       <use x="147.412109" xlink:href="#DejaVuSans-2e"/>
       <use x="179.199219" xlink:href="#DejaVuSans-34"/>
      </g>
     </g>
    </g>
    <g id="xtick_8">
     <g id="line2d_8">
      <g>
       <use style="stroke:#000000;stroke-width:0.8;" x="333.454545" xlink:href="#m327ee34c5e" y="512.64"/>
      </g>
     </g>
     <g id="text_8">
      <!-- −0.3 -->
      <g transform="translate(321.313139 527.238438)scale(0.1 -0.1)">
       <defs>
        <path d="M 2597 2516 
Q 3050 2419 3304 2112 
Q 3559 1806 3559 1356 
Q 3559 666 3084 287 
Q 2609 -91 1734 -91 
Q 1441 -91 1130 -33 
Q 819 25 488 141 
L 488 750 
Q 750 597 1062 519 
Q 1375 441 1716 441 
Q 2309 441 2620 675 
Q 2931 909 2931 1356 
Q 2931 1769 2642 2001 
Q 2353 2234 1838 2234 
L 1294 2234 
L 1294 2753 
L 1863 2753 
Q 2328 2753 2575 2939 
Q 2822 3125 2822 3475 
Q 2822 3834 2567 4026 
Q 2313 4219 1838 4219 
Q 1578 4219 1281 4162 
Q 984 4106 628 3988 
L 628 4550 
Q 988 4650 1302 4700 
Q 1616 4750 1894 4750 
Q 2613 4750 3031 4423 
Q 3450 4097 3450 3541 
Q 3450 3153 3228 2886 
Q 3006 2619 2597 2516 
z
" id="DejaVuSans-33" transform="scale(0.015625)"/>
       </defs>
       <use xlink:href="#DejaVuSans-2212"/>
       <use x="83.789062" xlink:href="#DejaVuSans-30"/>
       <use x="147.412109" xlink:href="#DejaVuSans-2e"/>
       <use x="179.199219" xlink:href="#DejaVuSans-33"/>
      </g>
     </g>
    </g>
    <g id="xtick_9">
     <g id="line2d_9">
      <g>
       <use style="stroke:#000000;stroke-width:0.8;" x="365.662338" xlink:href="#m327ee34c5e" y="512.64"/>
      </g>
     </g>
     <g id="text_9">
      <!-- −0.2 -->
      <g transform="translate(353.520931 527.238438)scale(0.1 -0.1)">
       <defs>
        <path d="M 1228 531 
L 3431 531 
L 3431 0 
L 469 0 
L 469 531 
Q 828 903 1448 1529 
Q 2069 2156 2228 2338 
Q 2531 2678 2651 2914 
Q 2772 3150 2772 3378 
Q 2772 3750 2511 3984 
Q 2250 4219 1831 4219 
Q 1534 4219 1204 4116 
Q 875 4013 500 3803 
L 500 4441 
Q 881 4594 1212 4672 
Q 1544 4750 1819 4750 
Q 2544 4750 2975 4387 
Q 3406 4025 3406 3419 
Q 3406 3131 3298 2873 
Q 3191 2616 2906 2266 
Q 2828 2175 2409 1742 
Q 1991 1309 1228 531 
z
" id="DejaVuSans-32" transform="scale(0.015625)"/>
       </defs>
       <use xlink:href="#DejaVuSans-2212"/>
       <use x="83.789062" xlink:href="#DejaVuSans-30"/>
       <use x="147.412109" xlink:href="#DejaVuSans-2e"/>
       <use x="179.199219" xlink:href="#DejaVuSans-32"/>
      </g>
     </g>
    </g>
    <g id="xtick_10">
     <g id="line2d_10">
      <g>
       <use style="stroke:#000000;stroke-width:0.8;" x="397.87013" xlink:href="#m327ee34c5e" y="512.64"/>
      </g>
     </g>
     <g id="text_10">
      <!-- −0.1 -->
      <g transform="translate(385.728724 527.238438)scale(0.1 -0.1)">
       <use xlink:href="#DejaVuSans-2212"/>
       <use x="83.789062" xlink:href="#DejaVuSans-30"/>
       <use x="147.412109" xlink:href="#DejaVuSans-2e"/>
       <use x="179.199219" xlink:href="#DejaVuSans-31"/>
      </g>
     </g>
    </g>
    <g id="xtick_11">
     <g id="line2d_11">
      <g>
       <use style="stroke:#000000;stroke-width:0.8;" x="430.077922" xlink:href="#m327ee34c5e" y="512.64"/>
      </g>
     </g>
     <g id="text_11">
      <!-- 0.0 -->
      <g transform="translate(422.12636 527.238438)scale(0.1 -0.1)">
       <use xlink:href="#DejaVuSans-30"/>
       <use x="63.623047" xlink:href="#DejaVuSans-2e"/>
       <use x="95.410156" xlink:href="#DejaVuSans-30"/>
      </g>
     </g>
    </g>
    <g id="xtick_12">
     <g id="line2d_12">
      <g>
       <use style="stroke:#000000;stroke-width:0.8;" x="462.285714" xlink:href="#m327ee34c5e" y="512.64"/>
      </g>
     </g>
     <g id="text_12">
      <!-- 0.1 -->
      <g transform="translate(454.334152 527.238438)scale(0.1 -0.1)">
       <use xlink:href="#DejaVuSans-30"/>
       <use x="63.623047" xlink:href="#DejaVuSans-2e"/>
       <use x="95.410156" xlink:href="#DejaVuSans-31"/>
      </g>
     </g>
    </g>
    <g id="xtick_13">
     <g id="line2d_13">
      <g>
       <use style="stroke:#000000;stroke-width:0.8;" x="494.493506" xlink:href="#m327ee34c5e" y="512.64"/>
      </g>
     </g>
     <g id="text_13">
      <!-- 0.2 -->
      <g transform="translate(486.541944 527.238438)scale(0.1 -0.1)">
       <use xlink:href="#DejaVuSans-30"/>
       <use x="63.623047" xlink:href="#DejaVuSans-2e"/>
       <use x="95.410156" xlink:href="#DejaVuSans-32"/>
      </g>
     </g>
    </g>
    <g id="xtick_14">
     <g id="line2d_14">
      <g>
       <use style="stroke:#000000;stroke-width:0.8;" x="526.701299" xlink:href="#m327ee34c5e" y="512.64"/>
      </g>
     </g>
     <g id="text_14">
      <!-- 0.3 -->
      <g transform="translate(518.749736 527.238438)scale(0.1 -0.1)">
       <use xlink:href="#DejaVuSans-30"/>
       <use x="63.623047" xlink:href="#DejaVuSans-2e"/>
       <use x="95.410156" xlink:href="#DejaVuSans-33"/>
      </g>
     </g>
    </g>
    <g id="xtick_15">
     <g id="line2d_15">
      <g>
       <use style="stroke:#000000;stroke-width:0.8;" x="558.909091" xlink:href="#m327ee34c5e" y="512.64"/>
      </g>
     </g>
     <g id="text_15">
      <!-- 0.4 -->
      <g transform="translate(550.957528 527.238438)scale(0.1 -0.1)">
       <use xlink:href="#DejaVuSans-30"/>
       <use x="63.623047" xlink:href="#DejaVuSans-2e"/>
       <use x="95.410156" xlink:href="#DejaVuSans-34"/>
      </g>
     </g>
    </g>
    <g id="xtick_16">
     <g id="line2d_16">
      <g>
       <use style="stroke:#000000;stroke-width:0.8;" x="591.116883" xlink:href="#m327ee34c5e" y="512.64"/>
      </g>
     </g>
     <g id="text_16">
      <!-- 0.5 -->
      <g transform="translate(583.165321 527.238438)scale(0.1 -0.1)">
       <use xlink:href="#DejaVuSans-30"/>
       <use x="63.623047" xlink:href="#DejaVuSans-2e"/>
       <use x="95.410156" xlink:href="#DejaVuSans-35"/>
      </g>
     </g>
    </g>
    <g id="xtick_17">
     <g id="line2d_17">
      <g>
       <use style="stroke:#000000;stroke-width:0.8;" x="623.324675" xlink:href="#m327ee34c5e" y="512.64"/>
      </g>
     </g>
     <g id="text_17">
      <!-- 0.6 -->
      <g transform="translate(615.373113 527.238438)scale(0.1 -0.1)">
       <use xlink:href="#DejaVuSans-30"/>
       <use x="63.623047" xlink:href="#DejaVuSans-2e"/>
       <use x="95.410156" xlink:href="#DejaVuSans-36"/>
      </g>
     </g>
    </g>
    <g id="xtick_18">
     <g id="line2d_18">
      <g>
       <use style="stroke:#000000;stroke-width:0.8;" x="655.532468" xlink:href="#m327ee34c5e" y="512.64"/>
      </g>
     </g>
     <g id="text_18">
      <!-- 0.7 -->
      <g transform="translate(647.580905 527.238438)scale(0.1 -0.1)">
       <use xlink:href="#DejaVuSans-30"/>
       <use x="63.623047" xlink:href="#DejaVuSans-2e"/>
       <use x="95.410156" xlink:href="#DejaVuSans-37"/>
      </g>
     </g>
    </g>
    <g id="xtick_19">
     <g id="line2d_19">
      <g>
       <use style="stroke:#000000;stroke-width:0.8;" x="687.74026" xlink:href="#m327ee34c5e" y="512.64"/>
      </g>
     </g>
     <g id="text_19">
      <!-- 0.8 -->
      <g transform="translate(679.788697 527.238438)scale(0.1 -0.1)">
       <use xlink:href="#DejaVuSans-30"/>
       <use x="63.623047" xlink:href="#DejaVuSans-2e"/>
       <use x="95.410156" xlink:href="#DejaVuSans-38"/>
      </g>
     </g>
    </g>
    <g id="xtick_20">
     <g id="line2d_20">
      <g>
       <use style="stroke:#000000;stroke-width:0.8;" x="719.948052" xlink:href="#m327ee34c5e" y="512.64"/>
      </g>
     </g>
     <g id="text_20">
      <!-- 0.9 -->
      <g transform="translate(711.996489 527.238438)scale(0.1 -0.1)">
       <use xlink:href="#DejaVuSans-30"/>
       <use x="63.623047" xlink:href="#DejaVuSans-2e"/>
       <use x="95.410156" xlink:href="#DejaVuSans-39"/>
      </g>
     </g>
    </g>
    <g id="xtick_21">
     <g id="line2d_21">
      <g>
       <use style="stroke:#000000;stroke-width:0.8;" x="752.155844" xlink:href="#m327ee34c5e" y="512.64"/>
      </g>
     </g>
     <g id="text_21">
      <!-- 1.0 -->
      <g transform="translate(744.204282 527.238438)scale(0.1 -0.1)">
       <use xlink:href="#DejaVuSans-31"/>
       <use x="63.623047" xlink:href="#DejaVuSans-2e"/>
       <use x="95.410156" xlink:href="#DejaVuSans-30"/>
      </g>
     </g>
    </g>
    <g id="text_22">
     <!-- Effective initial CRIT Rate -->
     <g transform="translate(379.435938 540.916563)scale(0.1 -0.1)">
      <defs>
       <path d="M 628 4666 
L 3578 4666 
L 3578 4134 
L 1259 4134 
L 1259 2753 
L 3481 2753 
L 3481 2222 
L 1259 2222 
L 1259 531 
L 3634 531 
L 3634 0 
L 628 0 
L 628 4666 
z
" id="DejaVuSans-45" transform="scale(0.015625)"/>
       <path d="M 2375 4863 
L 2375 4384 
L 1825 4384 
Q 1516 4384 1395 4259 
Q 1275 4134 1275 3809 
L 1275 3500 
L 2222 3500 
L 2222 3053 
L 1275 3053 
L 1275 0 
L 697 0 
L 697 3053 
L 147 3053 
L 147 3500 
L 697 3500 
L 697 3744 
Q 697 4328 969 4595 
Q 1241 4863 1831 4863 
L 2375 4863 
z
" id="DejaVuSans-66" transform="scale(0.015625)"/>
       <path d="M 3597 1894 
L 3597 1613 
L 953 1613 
Q 991 1019 1311 708 
Q 1631 397 2203 397 
Q 2534 397 2845 478 
Q 3156 559 3463 722 
L 3463 178 
Q 3153 47 2828 -22 
Q 2503 -91 2169 -91 
Q 1331 -91 842 396 
Q 353 884 353 1716 
Q 353 2575 817 3079 
Q 1281 3584 2069 3584 
Q 2775 3584 3186 3129 
Q 3597 2675 3597 1894 
z
M 3022 2063 
Q 3016 2534 2758 2815 
Q 2500 3097 2075 3097 
Q 1594 3097 1305 2825 
Q 1016 2553 972 2059 
L 3022 2063 
z
" id="DejaVuSans-65" transform="scale(0.015625)"/>
       <path d="M 3122 3366 
L 3122 2828 
Q 2878 2963 2633 3030 
Q 2388 3097 2138 3097 
Q 1578 3097 1268 2742 
Q 959 2388 959 1747 
Q 959 1106 1268 751 
Q 1578 397 2138 397 
Q 2388 397 2633 464 
Q 2878 531 3122 666 
L 3122 134 
Q 2881 22 2623 -34 
Q 2366 -91 2075 -91 
Q 1284 -91 818 406 
Q 353 903 353 1747 
Q 353 2603 823 3093 
Q 1294 3584 2113 3584 
Q 2378 3584 2631 3529 
Q 2884 3475 3122 3366 
z
" id="DejaVuSans-63" transform="scale(0.015625)"/>
       <path d="M 1172 4494 
L 1172 3500 
L 2356 3500 
L 2356 3053 
L 1172 3053 
L 1172 1153 
Q 1172 725 1289 603 
Q 1406 481 1766 481 
L 2356 481 
L 2356 0 
L 1766 0 
Q 1100 0 847 248 
Q 594 497 594 1153 
L 594 3053 
L 172 3053 
L 172 3500 
L 594 3500 
L 594 4494 
L 1172 4494 
z
" id="DejaVuSans-74" transform="scale(0.015625)"/>
       <path d="M 603 3500 
L 1178 3500 
L 1178 0 
L 603 0 
L 603 3500 
z
M 603 4863 
L 1178 4863 
L 1178 4134 
L 603 4134 
L 603 4863 
z
" id="DejaVuSans-69" transform="scale(0.015625)"/>
       <path d="M 191 3500 
L 800 3500 
L 1894 563 
L 2988 3500 
L 3597 3500 
L 2284 0 
L 1503 0 
L 191 3500 
z
" id="DejaVuSans-76" transform="scale(0.015625)"/>
       <path id="DejaVuSans-20" transform="scale(0.015625)"/>
       <path d="M 3513 2113 
L 3513 0 
L 2938 0 
L 2938 2094 
Q 2938 2591 2744 2837 
Q 2550 3084 2163 3084 
Q 1697 3084 1428 2787 
Q 1159 2491 1159 1978 
L 1159 0 
L 581 0 
L 581 3500 
L 1159 3500 
L 1159 2956 
Q 1366 3272 1645 3428 
Q 1925 3584 2291 3584 
Q 2894 3584 3203 3211 
Q 3513 2838 3513 2113 
z
" id="DejaVuSans-6e" transform="scale(0.015625)"/>
       <path d="M 2194 1759 
Q 1497 1759 1228 1600 
Q 959 1441 959 1056 
Q 959 750 1161 570 
Q 1363 391 1709 391 
Q 2188 391 2477 730 
Q 2766 1069 2766 1631 
L 2766 1759 
L 2194 1759 
z
M 3341 1997 
L 3341 0 
L 2766 0 
L 2766 531 
Q 2569 213 2275 61 
Q 1981 -91 1556 -91 
Q 1019 -91 701 211 
Q 384 513 384 1019 
Q 384 1609 779 1909 
Q 1175 2209 1959 2209 
L 2766 2209 
L 2766 2266 
Q 2766 2663 2505 2880 
Q 2244 3097 1772 3097 
Q 1472 3097 1187 3025 
Q 903 2953 641 2809 
L 641 3341 
Q 956 3463 1253 3523 
Q 1550 3584 1831 3584 
Q 2591 3584 2966 3190 
Q 3341 2797 3341 1997 
z
" id="DejaVuSans-61" transform="scale(0.015625)"/>
       <path d="M 603 4863 
L 1178 4863 
L 1178 0 
L 603 0 
L 603 4863 
z
" id="DejaVuSans-6c" transform="scale(0.015625)"/>
       <path d="M 4122 4306 
L 4122 3641 
Q 3803 3938 3442 4084 
Q 3081 4231 2675 4231 
Q 1875 4231 1450 3742 
Q 1025 3253 1025 2328 
Q 1025 1406 1450 917 
Q 1875 428 2675 428 
Q 3081 428 3442 575 
Q 3803 722 4122 1019 
L 4122 359 
Q 3791 134 3420 21 
Q 3050 -91 2638 -91 
Q 1578 -91 968 557 
Q 359 1206 359 2328 
Q 359 3453 968 4101 
Q 1578 4750 2638 4750 
Q 3056 4750 3426 4639 
Q 3797 4528 4122 4306 
z
" id="DejaVuSans-43" transform="scale(0.015625)"/>
       <path d="M 2841 2188 
Q 3044 2119 3236 1894 
Q 3428 1669 3622 1275 
L 4263 0 
L 3584 0 
L 2988 1197 
Q 2756 1666 2539 1819 
Q 2322 1972 1947 1972 
L 1259 1972 
L 1259 0 
L 628 0 
L 628 4666 
L 2053 4666 
Q 2853 4666 3247 4331 
Q 3641 3997 3641 3322 
Q 3641 2881 3436 2590 
Q 3231 2300 2841 2188 
z
M 1259 4147 
L 1259 2491 
L 2053 2491 
Q 2509 2491 2742 2702 
Q 2975 2913 2975 3322 
Q 2975 3731 2742 3939 
Q 2509 4147 2053 4147 
L 1259 4147 
z
" id="DejaVuSans-52" transform="scale(0.015625)"/>
       <path d="M 628 4666 
L 1259 4666 
L 1259 0 
L 628 0 
L 628 4666 
z
" id="DejaVuSans-49" transform="scale(0.015625)"/>
       <path d="M -19 4666 
L 3928 4666 
L 3928 4134 
L 2272 4134 
L 2272 0 
L 1638 0 
L 1638 4134 
L -19 4134 
L -19 4666 
z
" id="DejaVuSans-54" transform="scale(0.015625)"/>
      </defs>
      <use xlink:href="#DejaVuSans-45"/>
      <use x="63.183594" xlink:href="#DejaVuSans-66"/>
      <use x="98.388672" xlink:href="#DejaVuSans-66"/>
      <use x="133.59375" xlink:href="#DejaVuSans-65"/>
      <use x="195.117188" xlink:href="#DejaVuSans-63"/>
      <use x="250.097656" xlink:href="#DejaVuSans-74"/>
      <use x="289.306641" xlink:href="#DejaVuSans-69"/>
      <use x="317.089844" xlink:href="#DejaVuSans-76"/>
      <use x="376.269531" xlink:href="#DejaVuSans-65"/>
      <use x="437.792969" xlink:href="#DejaVuSans-20"/>
      <use x="469.580078" xlink:href="#DejaVuSans-69"/>
      <use x="497.363281" xlink:href="#DejaVuSans-6e"/>
      <use x="560.742188" xlink:href="#DejaVuSans-69"/>
      <use x="588.525391" xlink:href="#DejaVuSans-74"/>
      <use x="627.734375" xlink:href="#DejaVuSans-69"/>
      <use x="655.517578" xlink:href="#DejaVuSans-61"/>
      <use x="716.796875" xlink:href="#DejaVuSans-6c"/>
      <use x="744.580078" xlink:href="#DejaVuSans-20"/>
      <use x="776.367188" xlink:href="#DejaVuSans-43"/>
      <use x="846.191406" xlink:href="#DejaVuSans-52"/>
      <use x="915.673828" xlink:href="#DejaVuSans-49"/>
      <use x="945.166016" xlink:href="#DejaVuSans-54"/>
      <use x="1006.25" xlink:href="#DejaVuSans-20"/>
      <use x="1038.037109" xlink:href="#DejaVuSans-52"/>
      <use x="1105.269531" xlink:href="#DejaVuSans-61"/>
      <use x="1166.548828" xlink:href="#DejaVuSans-74"/>
      <use x="1205.757812" xlink:href="#DejaVuSans-65"/>
     </g>
    </g>
   </g>
   <g id="matplotlib.axis_2">
    <g id="ytick_1">
     <g id="line2d_22">
      <defs>
       <path d="M 0 0 
L -3.5 0 
" id="m6bdfa7afec" style="stroke:#000000;stroke-width:0.8;"/>
      </defs>
      <g>
       <use style="stroke:#000000;stroke-width:0.8;" x="108" xlink:href="#m6bdfa7afec" y="496.112573"/>
      </g>
     </g>
     <g id="text_23">
      <!-- 0.00 -->
      <g transform="translate(78.734375 499.911792)scale(0.1 -0.1)">
       <use xlink:href="#DejaVuSans-30"/>
       <use x="63.623047" xlink:href="#DejaVuSans-2e"/>
       <use x="95.410156" xlink:href="#DejaVuSans-30"/>
       <use x="159.033203" xlink:href="#DejaVuSans-30"/>
      </g>
     </g>
    </g>
    <g id="ytick_2">
     <g id="line2d_23">
      <g>
       <use style="stroke:#000000;stroke-width:0.8;" x="108" xlink:href="#m6bdfa7afec" y="475.574191"/>
      </g>
     </g>
     <g id="text_24">
      <!-- 0.05 -->
      <g transform="translate(78.734375 479.37341)scale(0.1 -0.1)">
       <use xlink:href="#DejaVuSans-30"/>
       <use x="63.623047" xlink:href="#DejaVuSans-2e"/>
       <use x="95.410156" xlink:href="#DejaVuSans-30"/>
       <use x="159.033203" xlink:href="#DejaVuSans-35"/>
      </g>
     </g>
    </g>
    <g id="ytick_3">
     <g id="line2d_24">
      <g>
       <use style="stroke:#000000;stroke-width:0.8;" x="108" xlink:href="#m6bdfa7afec" y="455.03581"/>
      </g>
     </g>
     <g id="text_25">
      <!-- 0.10 -->
      <g transform="translate(78.734375 458.835028)scale(0.1 -0.1)">
       <use xlink:href="#DejaVuSans-30"/>
       <use x="63.623047" xlink:href="#DejaVuSans-2e"/>
       <use x="95.410156" xlink:href="#DejaVuSans-31"/>
       <use x="159.033203" xlink:href="#DejaVuSans-30"/>
      </g>
     </g>
    </g>
    <g id="ytick_4">
     <g id="line2d_25">
      <g>
       <use style="stroke:#000000;stroke-width:0.8;" x="108" xlink:href="#m6bdfa7afec" y="434.497428"/>
      </g>
     </g>
     <g id="text_26">
      <!-- 0.15 -->
      <g transform="translate(78.734375 438.296647)scale(0.1 -0.1)">
       <use xlink:href="#DejaVuSans-30"/>
       <use x="63.623047" xlink:href="#DejaVuSans-2e"/>
       <use x="95.410156" xlink:href="#DejaVuSans-31"/>
       <use x="159.033203" xlink:href="#DejaVuSans-35"/>
      </g>
     </g>
    </g>
    <g id="ytick_5">
     <g id="line2d_26">
      <g>
       <use style="stroke:#000000;stroke-width:0.8;" x="108" xlink:href="#m6bdfa7afec" y="413.959046"/>
      </g>
     </g>
     <g id="text_27">
      <!-- 0.20 -->
      <g transform="translate(78.734375 417.758265)scale(0.1 -0.1)">
       <use xlink:href="#DejaVuSans-30"/>
       <use x="63.623047" xlink:href="#DejaVuSans-2e"/>
       <use x="95.410156" xlink:href="#DejaVuSans-32"/>
       <use x="159.033203" xlink:href="#DejaVuSans-30"/>
      </g>
     </g>
    </g>
    <g id="ytick_6">
     <g id="line2d_27">
      <g>
       <use style="stroke:#000000;stroke-width:0.8;" x="108" xlink:href="#m6bdfa7afec" y="393.420665"/>
      </g>
     </g>
     <g id="text_28">
      <!-- 0.25 -->
      <g transform="translate(78.734375 397.219883)scale(0.1 -0.1)">
       <use xlink:href="#DejaVuSans-30"/>
       <use x="63.623047" xlink:href="#DejaVuSans-2e"/>
       <use x="95.410156" xlink:href="#DejaVuSans-32"/>
       <use x="159.033203" xlink:href="#DejaVuSans-35"/>
      </g>
     </g>
    </g>
    <g id="ytick_7">
     <g id="line2d_28">
      <g>
       <use style="stroke:#000000;stroke-width:0.8;" x="108" xlink:href="#m6bdfa7afec" y="372.882283"/>
      </g>
     </g>
     <g id="text_29">
      <!-- 0.30 -->
      <g transform="translate(78.734375 376.681502)scale(0.1 -0.1)">
       <use xlink:href="#DejaVuSans-30"/>
       <use x="63.623047" xlink:href="#DejaVuSans-2e"/>
       <use x="95.410156" xlink:href="#DejaVuSans-33"/>
       <use x="159.033203" xlink:href="#DejaVuSans-30"/>
      </g>
     </g>
    </g>
    <g id="ytick_8">
     <g id="line2d_29">
      <g>
       <use style="stroke:#000000;stroke-width:0.8;" x="108" xlink:href="#m6bdfa7afec" y="352.343902"/>
      </g>
     </g>
     <g id="text_30">
      <!-- 0.35 -->
      <g transform="translate(78.734375 356.14312)scale(0.1 -0.1)">
       <use xlink:href="#DejaVuSans-30"/>
       <use x="63.623047" xlink:href="#DejaVuSans-2e"/>
       <use x="95.410156" xlink:href="#DejaVuSans-33"/>
       <use x="159.033203" xlink:href="#DejaVuSans-35"/>
      </g>
     </g>
    </g>
    <g id="ytick_9">
     <g id="line2d_30">
      <g>
       <use style="stroke:#000000;stroke-width:0.8;" x="108" xlink:href="#m6bdfa7afec" y="331.80552"/>
      </g>
     </g>
     <g id="text_31">
      <!-- 0.40 -->
      <g transform="translate(78.734375 335.604739)scale(0.1 -0.1)">
       <use xlink:href="#DejaVuSans-30"/>
       <use x="63.623047" xlink:href="#DejaVuSans-2e"/>
       <use x="95.410156" xlink:href="#DejaVuSans-34"/>
       <use x="159.033203" xlink:href="#DejaVuSans-30"/>
      </g>
     </g>
    </g>
    <g id="ytick_10">
     <g id="line2d_31">
      <g>
       <use style="stroke:#000000;stroke-width:0.8;" x="108" xlink:href="#m6bdfa7afec" y="311.267138"/>
      </g>
     </g>
     <g id="text_32">
      <!-- 0.45 -->
      <g transform="translate(78.734375 315.066357)scale(0.1 -0.1)">
       <use xlink:href="#DejaVuSans-30"/>
       <use x="63.623047" xlink:href="#DejaVuSans-2e"/>
       <use x="95.410156" xlink:href="#DejaVuSans-34"/>
       <use x="159.033203" xlink:href="#DejaVuSans-35"/>
      </g>
     </g>
    </g>
    <g id="ytick_11">
     <g id="line2d_32">
      <g>
       <use style="stroke:#000000;stroke-width:0.8;" x="108" xlink:href="#m6bdfa7afec" y="290.728757"/>
      </g>
     </g>
     <g id="text_33">
      <!-- 0.50 -->
      <g transform="translate(78.734375 294.527975)scale(0.1 -0.1)">
       <use xlink:href="#DejaVuSans-30"/>
       <use x="63.623047" xlink:href="#DejaVuSans-2e"/>
       <use x="95.410156" xlink:href="#DejaVuSans-35"/>
       <use x="159.033203" xlink:href="#DejaVuSans-30"/>
      </g>
     </g>
    </g>
    <g id="ytick_12">
     <g id="line2d_33">
      <g>
       <use style="stroke:#000000;stroke-width:0.8;" x="108" xlink:href="#m6bdfa7afec" y="270.190375"/>
      </g>
     </g>
     <g id="text_34">
      <!-- 0.55 -->
      <g transform="translate(78.734375 273.989594)scale(0.1 -0.1)">
       <use xlink:href="#DejaVuSans-30"/>
       <use x="63.623047" xlink:href="#DejaVuSans-2e"/>
       <use x="95.410156" xlink:href="#DejaVuSans-35"/>
       <use x="159.033203" xlink:href="#DejaVuSans-35"/>
      </g>
     </g>
    </g>
    <g id="ytick_13">
     <g id="line2d_34">
      <g>
       <use style="stroke:#000000;stroke-width:0.8;" x="108" xlink:href="#m6bdfa7afec" y="249.651993"/>
      </g>
     </g>
     <g id="text_35">
      <!-- 0.60 -->
      <g transform="translate(78.734375 253.451212)scale(0.1 -0.1)">
       <use xlink:href="#DejaVuSans-30"/>
       <use x="63.623047" xlink:href="#DejaVuSans-2e"/>
       <use x="95.410156" xlink:href="#DejaVuSans-36"/>
       <use x="159.033203" xlink:href="#DejaVuSans-30"/>
      </g>
     </g>
    </g>
    <g id="ytick_14">
     <g id="line2d_35">
      <g>
       <use style="stroke:#000000;stroke-width:0.8;" x="108" xlink:href="#m6bdfa7afec" y="229.113612"/>
      </g>
     </g>
     <g id="text_36">
      <!-- 0.65 -->
      <g transform="translate(78.734375 232.912831)scale(0.1 -0.1)">
       <use xlink:href="#DejaVuSans-30"/>
       <use x="63.623047" xlink:href="#DejaVuSans-2e"/>
       <use x="95.410156" xlink:href="#DejaVuSans-36"/>
       <use x="159.033203" xlink:href="#DejaVuSans-35"/>
      </g>
     </g>
    </g>
    <g id="ytick_15">
     <g id="line2d_36">
      <g>
       <use style="stroke:#000000;stroke-width:0.8;" x="108" xlink:href="#m6bdfa7afec" y="208.57523"/>
      </g>
     </g>
     <g id="text_37">
      <!-- 0.70 -->
      <g transform="translate(78.734375 212.374449)scale(0.1 -0.1)">
       <use xlink:href="#DejaVuSans-30"/>
       <use x="63.623047" xlink:href="#DejaVuSans-2e"/>
       <use x="95.410156" xlink:href="#DejaVuSans-37"/>
       <use x="159.033203" xlink:href="#DejaVuSans-30"/>
      </g>
     </g>
    </g>
    <g id="ytick_16">
     <g id="line2d_37">
      <g>
       <use style="stroke:#000000;stroke-width:0.8;" x="108" xlink:href="#m6bdfa7afec" y="188.036849"/>
      </g>
     </g>
     <g id="text_38">
      <!-- 0.75 -->
      <g transform="translate(78.734375 191.836067)scale(0.1 -0.1)">
       <use xlink:href="#DejaVuSans-30"/>
       <use x="63.623047" xlink:href="#DejaVuSans-2e"/>
       <use x="95.410156" xlink:href="#DejaVuSans-37"/>
       <use x="159.033203" xlink:href="#DejaVuSans-35"/>
      </g>
     </g>
    </g>
    <g id="ytick_17">
     <g id="line2d_38">
      <g>
       <use style="stroke:#000000;stroke-width:0.8;" x="108" xlink:href="#m6bdfa7afec" y="167.498467"/>
      </g>
     </g>
     <g id="text_39">
      <!-- 0.80 -->
      <g transform="translate(78.734375 171.297686)scale(0.1 -0.1)">
       <use xlink:href="#DejaVuSans-30"/>
       <use x="63.623047" xlink:href="#DejaVuSans-2e"/>
       <use x="95.410156" xlink:href="#DejaVuSans-38"/>
       <use x="159.033203" xlink:href="#DejaVuSans-30"/>
      </g>
     </g>
    </g>
    <g id="ytick_18">
     <g id="line2d_39">
      <g>
       <use style="stroke:#000000;stroke-width:0.8;" x="108" xlink:href="#m6bdfa7afec" y="146.960085"/>
      </g>
     </g>
     <g id="text_40">
      <!-- 0.85 -->
      <g transform="translate(78.734375 150.759304)scale(0.1 -0.1)">
       <use xlink:href="#DejaVuSans-30"/>
       <use x="63.623047" xlink:href="#DejaVuSans-2e"/>
       <use x="95.410156" xlink:href="#DejaVuSans-38"/>
       <use x="159.033203" xlink:href="#DejaVuSans-35"/>
      </g>
     </g>
    </g>
    <g id="ytick_19">
     <g id="line2d_40">
      <g>
       <use style="stroke:#000000;stroke-width:0.8;" x="108" xlink:href="#m6bdfa7afec" y="126.421704"/>
      </g>
     </g>
     <g id="text_41">
      <!-- 0.90 -->
      <g transform="translate(78.734375 130.220923)scale(0.1 -0.1)">
       <use xlink:href="#DejaVuSans-30"/>
       <use x="63.623047" xlink:href="#DejaVuSans-2e"/>
       <use x="95.410156" xlink:href="#DejaVuSans-39"/>
       <use x="159.033203" xlink:href="#DejaVuSans-30"/>
      </g>
     </g>
    </g>
    <g id="ytick_20">
     <g id="line2d_41">
      <g>
       <use style="stroke:#000000;stroke-width:0.8;" x="108" xlink:href="#m6bdfa7afec" y="105.883322"/>
      </g>
     </g>
     <g id="text_42">
      <!-- 0.95 -->
      <g transform="translate(78.734375 109.682541)scale(0.1 -0.1)">
       <use xlink:href="#DejaVuSans-30"/>
       <use x="63.623047" xlink:href="#DejaVuSans-2e"/>
       <use x="95.410156" xlink:href="#DejaVuSans-39"/>
       <use x="159.033203" xlink:href="#DejaVuSans-35"/>
      </g>
     </g>
    </g>
    <g id="text_43">
     <!-- Effective CRIT Rate with Royal weapon -->
     <g transform="translate(72.654687 387.633125)rotate(-90)scale(0.1 -0.1)">
      <defs>
       <path d="M 269 3500 
L 844 3500 
L 1563 769 
L 2278 3500 
L 2956 3500 
L 3675 769 
L 4391 3500 
L 4966 3500 
L 4050 0 
L 3372 0 
L 2619 2869 
L 1863 0 
L 1184 0 
L 269 3500 
z
" id="DejaVuSans-77" transform="scale(0.015625)"/>
       <path d="M 3513 2113 
L 3513 0 
L 2938 0 
L 2938 2094 
Q 2938 2591 2744 2837 
Q 2550 3084 2163 3084 
Q 1697 3084 1428 2787 
Q 1159 2491 1159 1978 
L 1159 0 
L 581 0 
L 581 4863 
L 1159 4863 
L 1159 2956 
Q 1366 3272 1645 3428 
Q 1925 3584 2291 3584 
Q 2894 3584 3203 3211 
Q 3513 2838 3513 2113 
z
" id="DejaVuSans-68" transform="scale(0.015625)"/>
       <path d="M 1959 3097 
Q 1497 3097 1228 2736 
Q 959 2375 959 1747 
Q 959 1119 1226 758 
Q 1494 397 1959 397 
Q 2419 397 2687 759 
Q 2956 1122 2956 1747 
Q 2956 2369 2687 2733 
Q 2419 3097 1959 3097 
z
M 1959 3584 
Q 2709 3584 3137 3096 
Q 3566 2609 3566 1747 
Q 3566 888 3137 398 
Q 2709 -91 1959 -91 
Q 1206 -91 779 398 
Q 353 888 353 1747 
Q 353 2609 779 3096 
Q 1206 3584 1959 3584 
z
" id="DejaVuSans-6f" transform="scale(0.015625)"/>
       <path d="M 2059 -325 
Q 1816 -950 1584 -1140 
Q 1353 -1331 966 -1331 
L 506 -1331 
L 506 -850 
L 844 -850 
Q 1081 -850 1212 -737 
Q 1344 -625 1503 -206 
L 1606 56 
L 191 3500 
L 800 3500 
L 1894 763 
L 2988 3500 
L 3597 3500 
L 2059 -325 
z
" id="DejaVuSans-79" transform="scale(0.015625)"/>
       <path d="M 1159 525 
L 1159 -1331 
L 581 -1331 
L 581 3500 
L 1159 3500 
L 1159 2969 
Q 1341 3281 1617 3432 
Q 1894 3584 2278 3584 
Q 2916 3584 3314 3078 
Q 3713 2572 3713 1747 
Q 3713 922 3314 415 
Q 2916 -91 2278 -91 
Q 1894 -91 1617 61 
Q 1341 213 1159 525 
z
M 3116 1747 
Q 3116 2381 2855 2742 
Q 2594 3103 2138 3103 
Q 1681 3103 1420 2742 
Q 1159 2381 1159 1747 
Q 1159 1113 1420 752 
Q 1681 391 2138 391 
Q 2594 391 2855 752 
Q 3116 1113 3116 1747 
z
" id="DejaVuSans-70" transform="scale(0.015625)"/>
      </defs>
      <use xlink:href="#DejaVuSans-45"/>
      <use x="63.183594" xlink:href="#DejaVuSans-66"/>
      <use x="98.388672" xlink:href="#DejaVuSans-66"/>
      <use x="133.59375" xlink:href="#DejaVuSans-65"/>
      <use x="195.117188" xlink:href="#DejaVuSans-63"/>
      <use x="250.097656" xlink:href="#DejaVuSans-74"/>
      <use x="289.306641" xlink:href="#DejaVuSans-69"/>
      <use x="317.089844" xlink:href="#DejaVuSans-76"/>
      <use x="376.269531" xlink:href="#DejaVuSans-65"/>
      <use x="437.792969" xlink:href="#DejaVuSans-20"/>
      <use x="469.580078" xlink:href="#DejaVuSans-43"/>
      <use x="539.404297" xlink:href="#DejaVuSans-52"/>
      <use x="608.886719" xlink:href="#DejaVuSans-49"/>
      <use x="638.378906" xlink:href="#DejaVuSans-54"/>
      <use x="699.462891" xlink:href="#DejaVuSans-20"/>
      <use x="731.25" xlink:href="#DejaVuSans-52"/>
      <use x="798.482422" xlink:href="#DejaVuSans-61"/>
      <use x="859.761719" xlink:href="#DejaVuSans-74"/>
      <use x="898.970703" xlink:href="#DejaVuSans-65"/>
      <use x="960.494141" xlink:href="#DejaVuSans-20"/>
      <use x="992.28125" xlink:href="#DejaVuSans-77"/>
      <use x="1074.068359" xlink:href="#DejaVuSans-69"/>
      <use x="1101.851562" xlink:href="#DejaVuSans-74"/>
      <use x="1141.060547" xlink:href="#DejaVuSans-68"/>
      <use x="1204.439453" xlink:href="#DejaVuSans-20"/>
      <use x="1236.226562" xlink:href="#DejaVuSans-52"/>
      <use x="1301.208984" xlink:href="#DejaVuSans-6f"/>
      <use x="1362.390625" xlink:href="#DejaVuSans-79"/>
      <use x="1421.570312" xlink:href="#DejaVuSans-61"/>
      <use x="1482.849609" xlink:href="#DejaVuSans-6c"/>
      <use x="1510.632812" xlink:href="#DejaVuSans-20"/>
      <use x="1542.419922" xlink:href="#DejaVuSans-77"/>
      <use x="1624.207031" xlink:href="#DejaVuSans-65"/>
      <use x="1685.730469" xlink:href="#DejaVuSans-61"/>
      <use x="1747.009766" xlink:href="#DejaVuSans-70"/>
      <use x="1810.486328" xlink:href="#DejaVuSans-6f"/>
      <use x="1871.667969" xlink:href="#DejaVuSans-6e"/>
     </g>
    </g>
   </g>
   <g id="line2d_42">
    <path clip-path="url(#pb406c71c6a)" d="M 304.467532 492.218906 
L 307.688312 488.726971 
L 310.909091 485.400985 
L 314.12987 482.424974 
L 317.350649 479.628468 
L 330.233766 470.275289 
L 333.454545 468.47777 
L 336.675325 466.35369 
L 343.116883 462.719629 
L 352.779221 458.003195 
L 359.220779 454.477166 
L 362.441558 453.023459 
L 368.883117 449.859727 
L 375.324675 447.003659 
L 378.545455 445.715492 
L 384.987013 442.482751 
L 388.207792 440.872131 
L 391.428571 439.088989 
L 394.649351 437.69854 
L 397.87013 436.067382 
L 401.090909 434.687613 
L 404.311688 433.127518 
L 407.532468 431.224431 
L 410.753247 429.509066 
L 413.974026 427.475766 
L 420.415584 423.900855 
L 430.077922 418.326328 
L 439.74026 410.831872 
L 442.961039 408.085069 
L 446.181818 405.71494 
L 455.844156 397.773159 
L 462.285714 392.403604 
L 475.168831 381.482114 
L 478.38961 378.485564 
L 481.61039 375.739994 
L 484.831169 372.78986 
L 488.051948 370.118638 
L 497.714286 361.457192 
L 500.935065 358.358361 
L 504.155844 355.502294 
L 507.376623 352.305289 
L 513.818182 346.318762 
L 517.038961 343.638503 
L 520.25974 340.160534 
L 523.480519 336.988586 
L 526.701299 334.047079 
L 529.922078 330.702609 
L 533.142857 327.818609 
L 552.467532 308.571681 
L 555.688312 305.343869 
L 558.909091 301.708165 
L 562.12987 298.501713 
L 565.350649 295.588138 
L 568.571429 292.000083 
L 571.792208 288.591533 
L 575.012987 285.540351 
L 578.233766 281.757181 
L 587.896104 271.676532 
L 591.116883 268.449542 
L 597.558442 261.388035 
L 600.779221 257.787657 
L 607.220779 251.25029 
L 610.441558 247.776428 
L 613.662338 243.586188 
L 620.103896 237.184785 
L 626.545455 229.894481 
L 629.766234 226.604232 
L 642.649351 211.755804 
L 645.87013 208.549352 
L 649.090909 204.870517 
L 652.311688 201.511259 
L 661.974026 189.954312 
L 665.194805 186.41637 
L 668.415584 183.324112 
L 674.857143 175.635363 
L 681.298701 168.543049 
L 684.519481 164.532314 
L 687.74026 160.964386 
L 690.961039 156.970493 
L 697.402597 149.553672 
L 700.623377 145.671918 
L 703.844156 142.425622 
L 707.064935 138.382436 
L 710.285714 134.768091 
L 729.61039 112.107684 
L 736.051948 105.004279 
L 748.935065 89.397163 
L 748.935065 89.397163 
" style="fill:none;stroke:#1f77b4;stroke-linecap:square;stroke-width:1.5;"/>
   </g>
   <g id="line2d_43">
    <path clip-path="url(#pb406c71c6a)" d="M 304.467532 491.806713 
L 307.688312 488.485876 
L 310.909091 485.385758 
L 314.12987 482.488073 
L 317.350649 479.775401 
L 320.571429 477.231164 
L 327.012987 472.585746 
L 333.454545 468.435117 
L 339.896104 464.67452 
L 346.337662 461.210418 
L 356 456.391266 
L 372.103896 448.801663 
L 384.987013 442.653109 
L 394.649351 437.792693 
L 404.311688 432.617761 
L 410.753247 428.961738 
L 417.194805 425.125808 
L 423.636364 421.10173 
L 430.077922 416.884897 
L 436.519481 412.473902 
L 442.961039 407.870125 
L 449.402597 403.077336 
L 459.064935 395.546879 
L 468.727273 387.630775 
L 478.38961 379.361222 
L 488.051948 370.774174 
L 497.714286 361.907341 
L 510.597403 349.714664 
L 523.480519 337.176075 
L 539.584416 321.128978 
L 555.688312 304.772161 
L 575.012987 284.83717 
L 594.337662 264.610008 
L 613.662338 244.061071 
L 629.766234 226.631646 
L 645.87013 208.862777 
L 661.974026 190.710517 
L 678.077922 172.171915 
L 697.402597 149.521301 
L 723.168831 119.249723 
L 732.831169 108.17496 
L 742.493506 97.456851 
L 748.935065 90.597025 
L 748.935065 90.597025 
" style="fill:none;stroke:#1f77b4;stroke-dasharray:5.55,2.4;stroke-dashoffset:0;stroke-opacity:0.5;stroke-width:1.5;"/>
   </g>
   <g id="line2d_44">
    <path clip-path="url(#pb406c71c6a)" d="M 272.25974 492.203297 
L 275.480519 488.61442 
L 278.701299 485.320064 
L 281.922078 482.370342 
L 285.142857 479.700763 
L 291.584416 474.841382 
L 294.805195 472.511918 
L 307.688312 464.867533 
L 310.909091 463.028526 
L 314.12987 461.621647 
L 317.350649 459.882457 
L 327.012987 455.476974 
L 333.454545 452.897764 
L 339.896104 449.891356 
L 343.116883 448.718614 
L 349.558442 445.793538 
L 352.779221 444.674196 
L 359.220779 442.121275 
L 365.662338 439.794687 
L 368.883117 438.308119 
L 372.103896 437.075406 
L 378.545455 434.075159 
L 397.87013 426.304257 
L 401.090909 424.431567 
L 404.311688 422.880509 
L 407.532468 421.087508 
L 423.636364 412.707027 
L 426.857143 410.934564 
L 430.077922 409.311211 
L 442.961039 399.730056 
L 459.064935 387.079234 
L 468.727273 379.163331 
L 471.948052 376.732819 
L 481.61039 368.464066 
L 484.831169 365.596908 
L 488.051948 362.961834 
L 513.818182 340.011836 
L 517.038961 336.972977 
L 520.25974 334.192491 
L 526.701299 328.007562 
L 529.922078 325.211467 
L 533.142857 322.161107 
L 539.584416 315.742862 
L 542.805195 312.695377 
L 546.025974 309.811789 
L 549.246753 306.722816 
L 552.467532 303.112579 
L 555.688312 300.466414 
L 558.909091 297.216421 
L 562.12987 293.707233 
L 565.350649 290.617028 
L 568.571429 287.763836 
L 571.792208 284.326122 
L 575.012987 281.097077 
L 581.454545 274.063092 
L 584.675325 270.901003 
L 587.896104 268.018647 
L 591.116883 264.727166 
L 594.337662 261.260287 
L 597.558442 257.58597 
L 600.779221 254.27354 
L 607.220779 247.892265 
L 616.883117 237.472733 
L 620.103896 234.235063 
L 623.324675 230.505703 
L 632.987013 220.14409 
L 636.207792 216.432804 
L 645.87013 206.210852 
L 655.532468 195.460241 
L 658.753247 191.838914 
L 661.974026 188.424613 
L 665.194805 184.758923 
L 674.857143 174.124149 
L 678.077922 170.565258 
L 681.298701 166.68679 
L 684.519481 163.019457 
L 687.74026 159.154955 
L 697.402597 148.852492 
L 700.623377 144.829845 
L 703.844156 141.279169 
L 713.506494 130.066445 
L 716.727273 126.528503 
L 726.38961 115.541291 
L 729.61039 112.255561 
L 736.051948 104.984152 
L 739.272727 101.030103 
L 742.493506 97.354554 
L 748.935065 89.416059 
L 748.935065 89.416059 
" style="fill:none;stroke:#ff7f0e;stroke-linecap:square;stroke-width:1.5;"/>
   </g>
   <g id="line2d_45">
    <path clip-path="url(#pb406c71c6a)" d="M 272.25974 492.48 
L 275.480519 488.984688 
L 278.701299 485.723036 
L 281.922078 482.678703 
L 285.142857 479.836019 
L 288.363636 477.179962 
L 291.584416 474.696145 
L 294.805195 472.370803 
L 301.246753 468.143473 
L 307.688312 464.399608 
L 314.12987 461.049746 
L 320.571429 458.012838 
L 327.012987 455.215777 
L 336.675325 451.328291 
L 352.779221 445.216569 
L 365.662338 440.264149 
L 375.324675 436.337154 
L 384.987013 432.135785 
L 394.649351 427.599805 
L 401.090909 424.368465 
L 407.532468 420.96089 
L 413.974026 417.37139 
L 420.415584 413.596789 
L 426.857143 409.636144 
L 433.298701 405.490481 
L 439.74026 401.162539 
L 449.402597 394.338424 
L 459.064935 387.13322 
L 468.727273 379.570899 
L 478.38961 371.678672 
L 488.051948 363.485664 
L 497.714286 355.02172 
L 507.376623 346.316368 
L 520.25974 334.38235 
L 533.142857 322.130554 
L 549.246753 306.448064 
L 565.350649 290.429949 
L 581.454545 274.127949 
L 600.779221 254.223645 
L 620.103896 233.943387 
L 636.207792 216.733001 
L 652.311688 199.216441 
L 668.415584 181.382451 
L 684.519481 163.248246 
L 707.064935 137.494224 
L 732.831169 108.085989 
L 745.714286 93.761378 
L 748.935065 90.258301 
L 748.935065 90.258301 
" style="fill:none;stroke:#ff7f0e;stroke-dasharray:5.55,2.4;stroke-dashoffset:0;stroke-opacity:0.5;stroke-width:1.5;"/>
   </g>
   <g id="line2d_46">
    <path clip-path="url(#pb406c71c6a)" d="M 240.051948 492.228765 
L 243.272727 488.64071 
L 246.493506 485.382501 
L 249.714286 482.437708 
L 256.155844 477.104301 
L 265.818182 470.612529 
L 269.038961 468.733267 
L 278.701299 463.644678 
L 281.922078 461.71982 
L 291.584416 457.259706 
L 298.025974 454.612308 
L 301.246753 453.497074 
L 304.467532 452.123056 
L 314.12987 448.57197 
L 317.350649 447.445234 
L 327.012987 443.651795 
L 333.454545 441.450081 
L 339.896104 439.181 
L 343.116883 438.259238 
L 349.558442 436.133105 
L 352.779221 435.122616 
L 356 433.921121 
L 359.220779 432.582018 
L 368.883117 428.871144 
L 372.103896 427.545186 
L 378.545455 425.223116 
L 388.207792 421.66135 
L 391.428571 420.627859 
L 394.649351 418.860326 
L 404.311688 414.347633 
L 407.532468 412.648287 
L 423.636364 404.879849 
L 426.857143 403.088081 
L 430.077922 401.741995 
L 439.74026 394.735532 
L 462.285714 377.625006 
L 465.506494 375.074961 
L 468.727273 372.697848 
L 471.948052 369.872178 
L 475.168831 367.467544 
L 478.38961 364.611066 
L 481.61039 362.112777 
L 484.831169 359.321201 
L 488.051948 356.70954 
L 491.272727 353.872779 
L 494.493506 351.40653 
L 507.376623 340.166284 
L 510.597403 337.421946 
L 517.038961 331.518393 
L 520.25974 328.735032 
L 523.480519 325.62511 
L 526.701299 322.930064 
L 529.922078 320.050172 
L 533.142857 316.835094 
L 542.805195 308.113264 
L 549.246753 301.98913 
L 552.467532 298.637266 
L 555.688312 295.528987 
L 558.909091 292.634308 
L 562.12987 289.464003 
L 565.350649 286.598077 
L 571.792208 280.11945 
L 575.012987 277.121668 
L 581.454545 270.643863 
L 587.896104 264.405945 
L 591.116883 261.074209 
L 594.337662 257.477117 
L 604 248.007691 
L 607.220779 244.799185 
L 613.662338 237.651417 
L 616.883117 234.366508 
L 620.103896 231.372423 
L 623.324675 227.673871 
L 626.545455 224.356101 
L 629.766234 220.733131 
L 632.987013 217.556254 
L 636.207792 214.191245 
L 639.428571 210.439705 
L 642.649351 207.312941 
L 645.87013 203.651359 
L 652.311688 196.906143 
L 655.532468 193.240864 
L 658.753247 190.100545 
L 665.194805 182.859123 
L 674.857143 172.3751 
L 684.519481 161.934619 
L 687.74026 158.493619 
L 690.961039 154.673891 
L 694.181818 151.417325 
L 697.402597 147.462454 
L 700.623377 143.844002 
L 703.844156 140.398894 
L 713.506494 129.27161 
L 716.727273 126.162099 
L 719.948052 122.587599 
L 723.168831 119.443173 
L 729.61039 112.172996 
L 732.831169 108.69667 
L 748.935065 89.432079 
L 748.935065 89.432079 
" style="fill:none;stroke:#2ca02c;stroke-linecap:square;stroke-width:1.5;"/>
   </g>
   <g id="line2d_47">
    <path clip-path="url(#pb406c71c6a)" d="M 240.051948 492.447459 
L 243.272727 489.069487 
L 246.493506 485.894121 
L 249.714286 482.909531 
L 252.935065 480.104286 
L 256.155844 477.467345 
L 259.376623 474.98805 
L 262.597403 472.656116 
L 269.038961 468.395024 
L 275.480519 464.608989 
L 281.922078 461.228426 
L 288.363636 458.189005 
L 294.805195 455.431411 
L 301.246753 452.901118 
L 310.909091 449.423758 
L 323.792208 445.152269 
L 349.558442 436.799138 
L 359.220779 433.447125 
L 368.883117 429.866322 
L 378.545455 426.005769 
L 388.207792 421.826263 
L 397.87013 417.29913 
L 404.311688 414.078021 
L 410.753247 410.690005 
L 417.194805 407.132921 
L 426.857143 401.478847 
L 436.519481 395.445086 
L 446.181818 389.039127 
L 455.844156 382.2728 
L 465.506494 375.161443 
L 475.168831 367.723127 
L 484.831169 359.977942 
L 494.493506 351.947332 
L 504.155844 343.653498 
L 513.818182 335.118845 
L 526.701299 323.402852 
L 539.584416 311.348296 
L 552.467532 299.00172 
L 568.571429 283.220602 
L 584.675325 267.115785 
L 604 247.435023 
L 623.324675 227.42165 
L 642.649351 207.103595 
L 661.974026 186.483444 
L 681.298701 165.54808 
L 700.623377 144.281979 
L 719.948052 122.68416 
L 742.493506 97.116085 
L 748.935065 89.755704 
L 748.935065 89.755704 
" style="fill:none;stroke:#2ca02c;stroke-dasharray:5.55,2.4;stroke-dashoffset:0;stroke-opacity:0.5;stroke-width:1.5;"/>
   </g>
   <g id="line2d_48">
    <path clip-path="url(#pb406c71c6a)" d="M 207.844156 492.170847 
L 211.064935 488.580737 
L 217.506494 482.372395 
L 220.727273 479.678581 
L 230.38961 472.500006 
L 240.051948 466.997363 
L 243.272727 465.237224 
L 246.493506 463.790089 
L 252.935065 460.594728 
L 272.25974 452.523965 
L 278.701299 450.244205 
L 291.584416 446.095452 
L 294.805195 445.217231 
L 304.467532 441.708454 
L 320.571429 436.678604 
L 339.896104 431.242505 
L 352.779221 426.593026 
L 356 425.391942 
L 359.220779 424.43855 
L 362.441558 423.19187 
L 368.883117 421.112154 
L 372.103896 420.100844 
L 375.324675 418.866487 
L 378.545455 417.969781 
L 384.987013 415.8876 
L 391.428571 412.886532 
L 423.636364 397.868046 
L 430.077922 395.061271 
L 436.519481 390.470942 
L 442.961039 385.964411 
L 446.181818 383.471051 
L 459.064935 374.14334 
L 462.285714 371.541948 
L 468.727273 366.696123 
L 484.831169 353.887977 
L 488.051948 351.154318 
L 491.272727 348.675747 
L 497.714286 343.234719 
L 500.935065 340.655509 
L 504.155844 337.655262 
L 507.376623 335.117539 
L 510.597403 332.113185 
L 523.480519 321.091879 
L 526.701299 318.145032 
L 529.922078 315.427393 
L 533.142857 312.554073 
L 536.363636 309.3735 
L 552.467532 294.82945 
L 555.688312 291.669004 
L 558.909091 288.961224 
L 562.12987 285.93592 
L 565.350649 282.39346 
L 568.571429 279.758796 
L 571.792208 276.395431 
L 575.012987 273.303172 
L 578.233766 270.388776 
L 581.454545 266.997478 
L 587.896104 261.10132 
L 591.116883 258.064104 
L 594.337662 254.344192 
L 597.558442 251.129525 
L 600.779221 248.112436 
L 604 244.760983 
L 607.220779 241.667492 
L 610.441558 238.345204 
L 613.662338 234.730038 
L 620.103896 228.610422 
L 623.324675 225.364946 
L 626.545455 222.296512 
L 629.766234 218.94013 
L 632.987013 215.099453 
L 642.649351 205.201596 
L 645.87013 201.834533 
L 649.090909 198.644923 
L 655.532468 191.415002 
L 658.753247 188.188422 
L 678.077922 167.808186 
L 687.74026 157.130281 
L 690.961039 153.8655 
L 694.181818 150.026466 
L 697.402597 146.559587 
L 700.623377 142.879931 
L 703.844156 139.601183 
L 707.064935 135.889076 
L 723.168831 119.379914 
L 726.38961 115.670683 
L 732.831169 108.858923 
L 736.051948 104.86544 
L 739.272727 101.173461 
L 745.714286 93.300277 
L 748.935065 89.440294 
L 748.935065 89.440294 
" style="fill:none;stroke:#d62728;stroke-linecap:square;stroke-width:1.5;"/>
   </g>
   <g id="line2d_49">
    <path clip-path="url(#pb406c71c6a)" d="M 207.844156 491.735272 
L 211.064935 488.630299 
L 217.506494 482.886569 
L 223.948052 477.715956 
L 230.38961 473.062787 
L 236.831169 468.874218 
L 243.272727 465.100153 
L 249.714286 461.693174 
L 256.155844 458.60846 
L 262.597403 455.803719 
L 269.038961 453.239113 
L 275.480519 450.877182 
L 285.142857 447.638026 
L 294.805195 444.66706 
L 307.688312 440.954249 
L 336.675325 432.693558 
L 349.558442 428.700953 
L 359.220779 425.468152 
L 368.883117 421.986382 
L 378.545455 418.223013 
L 388.207792 414.151904 
L 397.87013 409.752949 
L 407.532468 405.011625 
L 417.194805 399.918547 
L 426.857143 394.469035 
L 436.519481 388.662687 
L 446.181818 382.502958 
L 455.844156 375.996752 
L 465.506494 369.154013 
L 475.168831 361.987336 
L 484.831169 354.511572 
L 494.493506 346.743453 
L 504.155844 338.701217 
L 513.818182 330.404247 
L 523.480519 321.872708 
L 536.363636 310.168073 
L 549.246753 298.132024 
L 562.12987 285.812423 
L 578.233766 270.083032 
L 597.558442 250.828176 
L 620.103896 227.980282 
L 645.87013 201.497752 
L 668.415584 178.028127 
L 687.74026 157.62713 
L 703.844156 140.334765 
L 716.727273 126.233273 
L 729.61039 111.815352 
L 742.493506 96.991488 
L 748.935065 89.394787 
L 748.935065 89.394787 
" style="fill:none;stroke:#d62728;stroke-dasharray:5.55,2.4;stroke-dashoffset:0;stroke-opacity:0.5;stroke-width:1.5;"/>
   </g>
   <g id="line2d_50">
    <path clip-path="url(#pb406c71c6a)" d="M 175.636364 492.19426 
L 178.857143 488.535964 
L 185.298701 482.40156 
L 191.74026 477.069385 
L 194.961039 474.77114 
L 201.402597 470.589115 
L 204.623377 468.715604 
L 211.064935 465.365794 
L 220.727273 460.926628 
L 223.948052 459.610118 
L 227.168831 458.045093 
L 240.051948 452.901461 
L 243.272727 451.865916 
L 249.714286 449.578762 
L 259.376623 446.587962 
L 278.701299 441.183082 
L 288.363636 438.165583 
L 294.805195 436.358205 
L 301.246753 434.460048 
L 310.909091 432.00489 
L 320.571429 429.415 
L 327.012987 428.004835 
L 352.779221 419.566435 
L 372.103896 413.675206 
L 378.545455 411.832913 
L 384.987013 408.962469 
L 388.207792 407.78069 
L 397.87013 403.360009 
L 420.415584 393.397251 
L 426.857143 390.653323 
L 430.077922 389.061599 
L 436.519481 384.836032 
L 442.961039 380.231327 
L 449.402597 375.651268 
L 452.623377 373.162837 
L 459.064935 368.706419 
L 465.506494 363.651513 
L 468.727273 361.348339 
L 475.168831 356.339438 
L 488.051948 346.244002 
L 491.272727 343.505414 
L 494.493506 341.291377 
L 497.714286 338.356853 
L 500.935065 335.982616 
L 504.155844 333.017695 
L 507.376623 330.654138 
L 513.818182 324.829453 
L 520.25974 319.595863 
L 523.480519 316.596027 
L 536.363636 305.377963 
L 549.246753 293.929869 
L 552.467532 290.983022 
L 555.688312 287.870225 
L 562.12987 282.076758 
L 565.350649 278.93644 
L 568.571429 276.155953 
L 571.792208 272.871455 
L 575.012987 270.018674 
L 581.454545 264.065008 
L 587.896104 257.647175 
L 591.116883 254.719634 
L 597.558442 248.330143 
L 600.779221 245.271567 
L 604 242.386336 
L 613.662338 232.522572 
L 620.103896 226.098988 
L 623.324675 222.643611 
L 626.545455 219.372257 
L 629.766234 216.541247 
L 639.428571 206.480315 
L 645.87013 200.126151 
L 649.090909 196.558223 
L 652.311688 193.451177 
L 655.532468 189.916932 
L 658.753247 186.663652 
L 661.974026 183.166377 
L 665.194805 180.147235 
L 668.415584 176.947355 
L 671.636364 173.298095 
L 681.298701 162.958252 
L 684.519481 159.862708 
L 687.74026 156.030656 
L 690.961039 152.86487 
L 694.181818 149.04432 
L 700.623377 142.132744 
L 707.064935 135.728877 
L 716.727273 126.240966 
L 719.948052 122.590063 
L 723.168831 119.231627 
L 726.38961 115.677255 
L 729.61039 112.345929 
L 739.272727 101.127044 
L 742.493506 97.386183 
L 748.935065 89.321993 
L 748.935065 89.321993 
" style="fill:none;stroke:#9467bd;stroke-linecap:square;stroke-width:1.5;"/>
   </g>
   <g id="line2d_51">
    <path clip-path="url(#pb406c71c6a)" d="M 175.636364 490.726827 
L 182.077922 485.268421 
L 188.519481 480.253959 
L 194.961039 475.652276 
L 201.402597 471.432908 
L 207.844156 467.566113 
L 214.285714 464.022896 
L 220.727273 460.775026 
L 227.168831 457.795054 
L 233.61039 455.056334 
L 240.051948 452.533038 
L 246.493506 450.200168 
L 256.155844 447.00532 
L 265.818182 444.106917 
L 275.480519 441.431505 
L 288.363636 438.092613 
L 327.012987 428.285228 
L 339.896104 424.679395 
L 349.558442 421.759416 
L 359.220779 418.616404 
L 368.883117 415.220741 
L 378.545455 411.547143 
L 388.207792 407.57456 
L 397.87013 403.286068 
L 407.532468 398.668738 
L 417.194805 393.713499 
L 426.857143 388.414973 
L 436.519481 382.771312 
L 446.181818 376.784 
L 455.844156 370.45766 
L 465.506494 363.799827 
L 475.168831 356.820723 
L 484.831169 349.533002 
L 494.493506 341.951491 
L 504.155844 334.092908 
L 513.818182 325.975572 
L 523.480519 317.61909 
L 536.363636 306.140765 
L 549.246753 294.324277 
L 562.12987 282.220433 
L 578.233766 266.761989 
L 597.558442 247.847922 
L 620.103896 225.442945 
L 649.090909 196.298808 
L 674.857143 170.085858 
L 694.181818 150.092447 
L 707.064935 136.487624 
L 719.948052 122.551053 
L 729.61039 111.80634 
L 739.272727 100.740764 
L 748.935065 89.28 
L 748.935065 89.28 
" style="fill:none;stroke:#9467bd;stroke-dasharray:5.55,2.4;stroke-dashoffset:0;stroke-opacity:0.5;stroke-width:1.5;"/>
   </g>
   <g id="patch_3">
    <path d="M 108 512.64 
L 108 69.12 
" style="fill:none;stroke:#000000;stroke-linecap:square;stroke-linejoin:miter;stroke-width:0.8;"/>
   </g>
   <g id="patch_4">
    <path d="M 777.6 512.64 
L 777.6 69.12 
" style="fill:none;stroke:#000000;stroke-linecap:square;stroke-linejoin:miter;stroke-width:0.8;"/>
   </g>
   <g id="patch_5">
    <path d="M 108 512.64 
L 777.6 512.64 
" style="fill:none;stroke:#000000;stroke-linecap:square;stroke-linejoin:miter;stroke-width:0.8;"/>
   </g>
   <g id="patch_6">
    <path d="M 108 69.12 
L 777.6 69.12 
" style="fill:none;stroke:#000000;stroke-linecap:square;stroke-linejoin:miter;stroke-width:0.8;"/>
   </g>
   <g id="text_44">
    <!-- [GI] Royal Weapons CRIT Rate contribution -->
    <g transform="translate(314.430938 63.12)scale(0.12 -0.12)">
     <defs>
      <path d="M 550 4863 
L 1875 4863 
L 1875 4416 
L 1125 4416 
L 1125 -397 
L 1875 -397 
L 1875 -844 
L 550 -844 
L 550 4863 
z
" id="DejaVuSans-5b" transform="scale(0.015625)"/>
      <path d="M 3809 666 
L 3809 1919 
L 2778 1919 
L 2778 2438 
L 4434 2438 
L 4434 434 
Q 4069 175 3628 42 
Q 3188 -91 2688 -91 
Q 1594 -91 976 548 
Q 359 1188 359 2328 
Q 359 3472 976 4111 
Q 1594 4750 2688 4750 
Q 3144 4750 3555 4637 
Q 3966 4525 4313 4306 
L 4313 3634 
Q 3963 3931 3569 4081 
Q 3175 4231 2741 4231 
Q 1884 4231 1454 3753 
Q 1025 3275 1025 2328 
Q 1025 1384 1454 906 
Q 1884 428 2741 428 
Q 3075 428 3337 486 
Q 3600 544 3809 666 
z
" id="DejaVuSans-47" transform="scale(0.015625)"/>
      <path d="M 1947 4863 
L 1947 -844 
L 622 -844 
L 622 -397 
L 1369 -397 
L 1369 4416 
L 622 4416 
L 622 4863 
L 1947 4863 
z
" id="DejaVuSans-5d" transform="scale(0.015625)"/>
      <path d="M 213 4666 
L 850 4666 
L 1831 722 
L 2809 4666 
L 3519 4666 
L 4500 722 
L 5478 4666 
L 6119 4666 
L 4947 0 
L 4153 0 
L 3169 4050 
L 2175 0 
L 1381 0 
L 213 4666 
z
" id="DejaVuSans-57" transform="scale(0.015625)"/>
      <path d="M 2834 3397 
L 2834 2853 
Q 2591 2978 2328 3040 
Q 2066 3103 1784 3103 
Q 1356 3103 1142 2972 
Q 928 2841 928 2578 
Q 928 2378 1081 2264 
Q 1234 2150 1697 2047 
L 1894 2003 
Q 2506 1872 2764 1633 
Q 3022 1394 3022 966 
Q 3022 478 2636 193 
Q 2250 -91 1575 -91 
Q 1294 -91 989 -36 
Q 684 19 347 128 
L 347 722 
Q 666 556 975 473 
Q 1284 391 1588 391 
Q 1994 391 2212 530 
Q 2431 669 2431 922 
Q 2431 1156 2273 1281 
Q 2116 1406 1581 1522 
L 1381 1569 
Q 847 1681 609 1914 
Q 372 2147 372 2553 
Q 372 3047 722 3315 
Q 1072 3584 1716 3584 
Q 2034 3584 2315 3537 
Q 2597 3491 2834 3397 
z
" id="DejaVuSans-73" transform="scale(0.015625)"/>
      <path d="M 2631 2963 
Q 2534 3019 2420 3045 
Q 2306 3072 2169 3072 
Q 1681 3072 1420 2755 
Q 1159 2438 1159 1844 
L 1159 0 
L 581 0 
L 581 3500 
L 1159 3500 
L 1159 2956 
Q 1341 3275 1631 3429 
Q 1922 3584 2338 3584 
Q 2397 3584 2469 3576 
Q 2541 3569 2628 3553 
L 2631 2963 
z
" id="DejaVuSans-72" transform="scale(0.015625)"/>
      <path d="M 3116 1747 
Q 3116 2381 2855 2742 
Q 2594 3103 2138 3103 
Q 1681 3103 1420 2742 
Q 1159 2381 1159 1747 
Q 1159 1113 1420 752 
Q 1681 391 2138 391 
Q 2594 391 2855 752 
Q 3116 1113 3116 1747 
z
M 1159 2969 
Q 1341 3281 1617 3432 
Q 1894 3584 2278 3584 
Q 2916 3584 3314 3078 
Q 3713 2572 3713 1747 
Q 3713 922 3314 415 
Q 2916 -91 2278 -91 
Q 1894 -91 1617 61 
Q 1341 213 1159 525 
L 1159 0 
L 581 0 
L 581 4863 
L 1159 4863 
L 1159 2969 
z
" id="DejaVuSans-62" transform="scale(0.015625)"/>
      <path d="M 544 1381 
L 544 3500 
L 1119 3500 
L 1119 1403 
Q 1119 906 1312 657 
Q 1506 409 1894 409 
Q 2359 409 2629 706 
Q 2900 1003 2900 1516 
L 2900 3500 
L 3475 3500 
L 3475 0 
L 2900 0 
L 2900 538 
Q 2691 219 2414 64 
Q 2138 -91 1772 -91 
Q 1169 -91 856 284 
Q 544 659 544 1381 
z
M 1991 3584 
L 1991 3584 
z
" id="DejaVuSans-75" transform="scale(0.015625)"/>
     </defs>
     <use xlink:href="#DejaVuSans-5b"/>
     <use x="39.013672" xlink:href="#DejaVuSans-47"/>
     <use x="116.503906" xlink:href="#DejaVuSans-49"/>
     <use x="145.996094" xlink:href="#DejaVuSans-5d"/>
     <use x="185.009766" xlink:href="#DejaVuSans-20"/>
     <use x="216.796875" xlink:href="#DejaVuSans-52"/>
     <use x="281.779297" xlink:href="#DejaVuSans-6f"/>
     <use x="342.960938" xlink:href="#DejaVuSans-79"/>
     <use x="402.140625" xlink:href="#DejaVuSans-61"/>
     <use x="463.419922" xlink:href="#DejaVuSans-6c"/>
     <use x="491.203125" xlink:href="#DejaVuSans-20"/>
     <use x="522.990234" xlink:href="#DejaVuSans-57"/>
     <use x="615.992188" xlink:href="#DejaVuSans-65"/>
     <use x="677.515625" xlink:href="#DejaVuSans-61"/>
     <use x="738.794922" xlink:href="#DejaVuSans-70"/>
     <use x="802.271484" xlink:href="#DejaVuSans-6f"/>
     <use x="863.453125" xlink:href="#DejaVuSans-6e"/>
     <use x="926.832031" xlink:href="#DejaVuSans-73"/>
     <use x="978.931641" xlink:href="#DejaVuSans-20"/>
     <use x="1010.71875" xlink:href="#DejaVuSans-43"/>
     <use x="1080.542969" xlink:href="#DejaVuSans-52"/>
     <use x="1150.025391" xlink:href="#DejaVuSans-49"/>
     <use x="1179.517578" xlink:href="#DejaVuSans-54"/>
     <use x="1240.601562" xlink:href="#DejaVuSans-20"/>
     <use x="1272.388672" xlink:href="#DejaVuSans-52"/>
     <use x="1339.621094" xlink:href="#DejaVuSans-61"/>
     <use x="1400.900391" xlink:href="#DejaVuSans-74"/>
     <use x="1440.109375" xlink:href="#DejaVuSans-65"/>
     <use x="1501.632812" xlink:href="#DejaVuSans-20"/>
     <use x="1533.419922" xlink:href="#DejaVuSans-63"/>
     <use x="1588.400391" xlink:href="#DejaVuSans-6f"/>
     <use x="1649.582031" xlink:href="#DejaVuSans-6e"/>
     <use x="1712.960938" xlink:href="#DejaVuSans-74"/>
     <use x="1752.169922" xlink:href="#DejaVuSans-72"/>
     <use x="1793.283203" xlink:href="#DejaVuSans-69"/>
     <use x="1821.066406" xlink:href="#DejaVuSans-62"/>
     <use x="1884.542969" xlink:href="#DejaVuSans-75"/>
     <use x="1947.921875" xlink:href="#DejaVuSans-74"/>
     <use x="1987.130859" xlink:href="#DejaVuSans-69"/>
     <use x="2014.914062" xlink:href="#DejaVuSans-6f"/>
     <use x="2076.095703" xlink:href="#DejaVuSans-6e"/>
    </g>
   </g>
   <g id="legend_1">
    <g id="patch_7">
     <path d="M 115 223.90125 
L 199.067187 223.90125 
Q 201.067187 223.90125 201.067187 221.90125 
L 201.067187 76.12 
Q 201.067187 74.12 199.067187 74.12 
L 115 74.12 
Q 113 74.12 113 76.12 
L 113 221.90125 
Q 113 223.90125 115 223.90125 
z
" style="fill:#ffffff;opacity:0.8;stroke:#cccccc;stroke-linejoin:miter;"/>
    </g>
    <g id="line2d_52">
     <path d="M 117 82.218438 
L 137 82.218438 
" style="fill:none;stroke:#1f77b4;stroke-linecap:square;stroke-width:1.5;"/>
    </g>
    <g id="line2d_53"/>
    <g id="text_45">
     <!-- ref1 -->
     <g transform="translate(145 85.718438)scale(0.1 -0.1)">
      <use xlink:href="#DejaVuSans-72"/>
      <use x="38.863281" xlink:href="#DejaVuSans-65"/>
      <use x="100.386719" xlink:href="#DejaVuSans-66"/>
      <use x="135.591797" xlink:href="#DejaVuSans-31"/>
     </g>
    </g>
    <g id="line2d_54">
     <path d="M 117 96.896563 
L 137 96.896563 
" style="fill:none;stroke:#1f77b4;stroke-dasharray:5.55,2.4;stroke-dashoffset:0;stroke-opacity:0.5;stroke-width:1.5;"/>
    </g>
    <g id="line2d_55"/>
    <g id="text_46">
     <!-- ref1 (poly) -->
     <g transform="translate(145 100.396563)scale(0.1 -0.1)">
      <defs>
       <path d="M 1984 4856 
Q 1566 4138 1362 3434 
Q 1159 2731 1159 2009 
Q 1159 1288 1364 580 
Q 1569 -128 1984 -844 
L 1484 -844 
Q 1016 -109 783 600 
Q 550 1309 550 2009 
Q 550 2706 781 3412 
Q 1013 4119 1484 4856 
L 1984 4856 
z
" id="DejaVuSans-28" transform="scale(0.015625)"/>
       <path d="M 513 4856 
L 1013 4856 
Q 1481 4119 1714 3412 
Q 1947 2706 1947 2009 
Q 1947 1309 1714 600 
Q 1481 -109 1013 -844 
L 513 -844 
Q 928 -128 1133 580 
Q 1338 1288 1338 2009 
Q 1338 2731 1133 3434 
Q 928 4138 513 4856 
z
" id="DejaVuSans-29" transform="scale(0.015625)"/>
      </defs>
      <use xlink:href="#DejaVuSans-72"/>
      <use x="38.863281" xlink:href="#DejaVuSans-65"/>
      <use x="100.386719" xlink:href="#DejaVuSans-66"/>
      <use x="135.591797" xlink:href="#DejaVuSans-31"/>
      <use x="199.214844" xlink:href="#DejaVuSans-20"/>
      <use x="231.001953" xlink:href="#DejaVuSans-28"/>
      <use x="270.015625" xlink:href="#DejaVuSans-70"/>
      <use x="333.492188" xlink:href="#DejaVuSans-6f"/>
      <use x="394.673828" xlink:href="#DejaVuSans-6c"/>
      <use x="422.457031" xlink:href="#DejaVuSans-79"/>
      <use x="481.636719" xlink:href="#DejaVuSans-29"/>
     </g>
    </g>
    <g id="line2d_56">
     <path d="M 117 111.574688 
L 137 111.574688 
" style="fill:none;stroke:#ff7f0e;stroke-linecap:square;stroke-width:1.5;"/>
    </g>
    <g id="line2d_57"/>
    <g id="text_47">
     <!-- ref2 -->
     <g transform="translate(145 115.074688)scale(0.1 -0.1)">
      <use xlink:href="#DejaVuSans-72"/>
      <use x="38.863281" xlink:href="#DejaVuSans-65"/>
      <use x="100.386719" xlink:href="#DejaVuSans-66"/>
      <use x="135.591797" xlink:href="#DejaVuSans-32"/>
     </g>
    </g>
    <g id="line2d_58">
     <path d="M 117 126.252813 
L 137 126.252813 
" style="fill:none;stroke:#ff7f0e;stroke-dasharray:5.55,2.4;stroke-dashoffset:0;stroke-opacity:0.5;stroke-width:1.5;"/>
    </g>
    <g id="line2d_59"/>
    <g id="text_48">
     <!-- ref2 (poly) -->
     <g transform="translate(145 129.752813)scale(0.1 -0.1)">
      <use xlink:href="#DejaVuSans-72"/>
      <use x="38.863281" xlink:href="#DejaVuSans-65"/>
      <use x="100.386719" xlink:href="#DejaVuSans-66"/>
      <use x="135.591797" xlink:href="#DejaVuSans-32"/>
      <use x="199.214844" xlink:href="#DejaVuSans-20"/>
      <use x="231.001953" xlink:href="#DejaVuSans-28"/>
      <use x="270.015625" xlink:href="#DejaVuSans-70"/>
      <use x="333.492188" xlink:href="#DejaVuSans-6f"/>
      <use x="394.673828" xlink:href="#DejaVuSans-6c"/>
      <use x="422.457031" xlink:href="#DejaVuSans-79"/>
      <use x="481.636719" xlink:href="#DejaVuSans-29"/>
     </g>
    </g>
    <g id="line2d_60">
     <path d="M 117 140.930938 
L 137 140.930938 
" style="fill:none;stroke:#2ca02c;stroke-linecap:square;stroke-width:1.5;"/>
    </g>
    <g id="line2d_61"/>
    <g id="text_49">
     <!-- ref3 -->
     <g transform="translate(145 144.430938)scale(0.1 -0.1)">
      <use xlink:href="#DejaVuSans-72"/>
      <use x="38.863281" xlink:href="#DejaVuSans-65"/>
      <use x="100.386719" xlink:href="#DejaVuSans-66"/>
      <use x="135.591797" xlink:href="#DejaVuSans-33"/>
     </g>
    </g>
    <g id="line2d_62">
     <path d="M 117 155.609063 
L 137 155.609063 
" style="fill:none;stroke:#2ca02c;stroke-dasharray:5.55,2.4;stroke-dashoffset:0;stroke-opacity:0.5;stroke-width:1.5;"/>
    </g>
    <g id="line2d_63"/>
    <g id="text_50">
     <!-- ref3 (poly) -->
     <g transform="translate(145 159.109063)scale(0.1 -0.1)">
      <use xlink:href="#DejaVuSans-72"/>
      <use x="38.863281" xlink:href="#DejaVuSans-65"/>
      <use x="100.386719" xlink:href="#DejaVuSans-66"/>
      <use x="135.591797" xlink:href="#DejaVuSans-33"/>
      <use x="199.214844" xlink:href="#DejaVuSans-20"/>
      <use x="231.001953" xlink:href="#DejaVuSans-28"/>
      <use x="270.015625" xlink:href="#DejaVuSans-70"/>
      <use x="333.492188" xlink:href="#DejaVuSans-6f"/>
      <use x="394.673828" xlink:href="#DejaVuSans-6c"/>
      <use x="422.457031" xlink:href="#DejaVuSans-79"/>
      <use x="481.636719" xlink:href="#DejaVuSans-29"/>
     </g>
    </g>
    <g id="line2d_64">
     <path d="M 117 170.287188 
L 137 170.287188 
" style="fill:none;stroke:#d62728;stroke-linecap:square;stroke-width:1.5;"/>
    </g>
    <g id="line2d_65"/>
    <g id="text_51">
     <!-- ref4 -->
     <g transform="translate(145 173.787188)scale(0.1 -0.1)">
      <use xlink:href="#DejaVuSans-72"/>
      <use x="38.863281" xlink:href="#DejaVuSans-65"/>
      <use x="100.386719" xlink:href="#DejaVuSans-66"/>
      <use x="135.591797" xlink:href="#DejaVuSans-34"/>
     </g>
    </g>
    <g id="line2d_66">
     <path d="M 117 184.965313 
L 137 184.965313 
" style="fill:none;stroke:#d62728;stroke-dasharray:5.55,2.4;stroke-dashoffset:0;stroke-opacity:0.5;stroke-width:1.5;"/>
    </g>
    <g id="line2d_67"/>
    <g id="text_52">
     <!-- ref4 (poly) -->
     <g transform="translate(145 188.465313)scale(0.1 -0.1)">
      <use xlink:href="#DejaVuSans-72"/>
      <use x="38.863281" xlink:href="#DejaVuSans-65"/>
      <use x="100.386719" xlink:href="#DejaVuSans-66"/>
      <use x="135.591797" xlink:href="#DejaVuSans-34"/>
      <use x="199.214844" xlink:href="#DejaVuSans-20"/>
      <use x="231.001953" xlink:href="#DejaVuSans-28"/>
      <use x="270.015625" xlink:href="#DejaVuSans-70"/>
      <use x="333.492188" xlink:href="#DejaVuSans-6f"/>
      <use x="394.673828" xlink:href="#DejaVuSans-6c"/>
      <use x="422.457031" xlink:href="#DejaVuSans-79"/>
      <use x="481.636719" xlink:href="#DejaVuSans-29"/>
     </g>
    </g>
    <g id="line2d_68">
     <path d="M 117 199.643438 
L 137 199.643438 
" style="fill:none;stroke:#9467bd;stroke-linecap:square;stroke-width:1.5;"/>
    </g>
    <g id="line2d_69"/>
    <g id="text_53">
     <!-- ref5 -->
     <g transform="translate(145 203.143438)scale(0.1 -0.1)">
      <use xlink:href="#DejaVuSans-72"/>
      <use x="38.863281" xlink:href="#DejaVuSans-65"/>
      <use x="100.386719" xlink:href="#DejaVuSans-66"/>
      <use x="135.591797" xlink:href="#DejaVuSans-35"/>
     </g>
    </g>
    <g id="line2d_70">
     <path d="M 117 214.321563 
L 137 214.321563 
" style="fill:none;stroke:#9467bd;stroke-dasharray:5.55,2.4;stroke-dashoffset:0;stroke-opacity:0.5;stroke-width:1.5;"/>
    </g>
    <g id="line2d_71"/>
    <g id="text_54">
     <!-- ref5 (poly) -->
     <g transform="translate(145 217.821563)scale(0.1 -0.1)">
      <use xlink:href="#DejaVuSans-72"/>
      <use x="38.863281" xlink:href="#DejaVuSans-65"/>
      <use x="100.386719" xlink:href="#DejaVuSans-66"/>
      <use x="135.591797" xlink:href="#DejaVuSans-35"/>
      <use x="199.214844" xlink:href="#DejaVuSans-20"/>
      <use x="231.001953" xlink:href="#DejaVuSans-28"/>
      <use x="270.015625" xlink:href="#DejaVuSans-70"/>
      <use x="333.492188" xlink:href="#DejaVuSans-6f"/>
      <use x="394.673828" xlink:href="#DejaVuSans-6c"/>
      <use x="422.457031" xlink:href="#DejaVuSans-79"/>
      <use x="481.636719" xlink:href="#DejaVuSans-29"/>
     </g>
    </g>
   </g>
  </g>
 </g>
 <defs>
  <clipPath id="pb406c71c6a">
   <rect height="443.52" width="669.6" x="108" y="69.12"/>
  </clipPath>
 </defs>
</svg>
